# xmcd
#
# Track frame offsets:
#	150
#	12421
#	23920
#	34864
#	46971
#	56850
#	69578
#	83402
#	97010
#	112116
#	128910
#	142360
#	155000
#	174486
#	183913
#	196110
#	209790
#	219248
#	231286
#	244577
#
# Disc length: 3428 seconds
#
# Revision: 1
# Processed by: cddbd v1.4PL0 Copyright (c) Steve Scherf et al.
# Submitted via: CDmax 1.8
#
DISCID=260d6214
DTITLE=Tammy Wynette - The Best Of
DYEAR=1978
DGENRE=Country
TTITLE0=Stand By Your Man
TTITLE1=Good Lovin Makes It Right
TTITLE2=Singin My Song
TTITLE3=He Loves Me All The Way
TTITLE4=You Can't Hang On (Looking On)
TTITLE5=We Sure Can Love Each Other
TTITLE6=Almost Persuaded
TTITLE7=My Elusive Dream
TTITLE8=Gentle On My Mind
TTITLE9=The Wonders You Perform
TTITLE10=D.I.V.O.R.C.E
TTITLE11=Kids Say The Darndest Things
TTITLE12=Bedtime Story
TTITLE13=The Legend Of Bonnie And Clyde
TTITLE14=There Goes My Everything
TTITLE15=Woman To Woman
TTITLE16=You Good Girls Gonna Go Bad
TTITLE17=I Don't Wanna Play House
TTITLE18=My Man (Understands)
TTITLE19=You'll Never Walk Alone
EXTD=
EXTT0=
EXTT1=
EXTT2=
EXTT3=
EXTT4=
EXTT5=
EXTT6=
EXTT7=
EXTT8=
EXTT9=
EXTT10=
EXTT11=
EXTT12=
EXTT13=
EXTT14=
EXTT15=
EXTT16=
EXTT17=
EXTT18=
EXTT19=
PLAYORDER=
